HIERARCHY
ROOT Pelvis
{
	OFFSET 0.000000 0.000000 0.000000
	CHANNELS 6 Xposition Yposition Zposition Xrotation Yrotation Zrotation
	JOINT LeftUpLeg_virtual
	{
		OFFSET 0.000000 0.000000 0.000000
		CHANNELS 3 Xrotation Yrotation Zrotation
		JOINT LeftUpLeg
		{
			OFFSET 18.735201 -5.666702 -4.541200
			CHANNELS 3 Xrotation Yrotation Zrotation
			JOINT LeftLeg
			{
				OFFSET -0.021200 -31.938179 0.493100
				CHANNELS 3 Xrotation Yrotation Zrotation
				JOINT LeftFoot
				{
					OFFSET 0.021200 -31.938179 -4.336299
					CHANNELS 3 Xrotation Yrotation Zrotation
					JOINT LeftToeBase
					{
						OFFSET 0.943001 -26.722000 15.023500
						CHANNELS 3 Xrotation Yrotation Zrotation
						End Site
						{
							OFFSET 0 0 0
						}
					}
				}
			}
		}
	}
	JOINT RightUpLeg_virtual
	{
		OFFSET 0.000000 0.000000 0.000000
		CHANNELS 3 Xrotation Yrotation Zrotation
		JOINT RightUpLeg
		{
			OFFSET -18.735201 -5.666702 -4.541200
			CHANNELS 3 Xrotation Yrotation Zrotation
			JOINT RightLeg
			{
				OFFSET 0.018946 -31.938133 0.493100
				CHANNELS 3 Xrotation Yrotation Zrotation
				JOINT RightFoot
				{
					OFFSET -0.018946 -31.938126 -4.336299
					CHANNELS 3 Xrotation Yrotation Zrotation
					JOINT RightToeBase
					{
						OFFSET -0.943001 -26.722004 15.023500
						CHANNELS 3 Xrotation Yrotation Zrotation
						End Site
						{
							OFFSET 0 0 0
						}
					}
				}
			}
		}
	}
	JOINT Hips_virtual
	{
		OFFSET 0.000000 0.000000 0.000000
		CHANNELS 3 Xrotation Yrotation Zrotation
		JOINT Hips
		{
			OFFSET -0.000000 -0.000000 -0.000000
			CHANNELS 3 Xrotation Yrotation Zrotation
			JOINT Spine
			{
				OFFSET 0.000000 10.199997 -0.299500
				CHANNELS 3 Xrotation Yrotation Zrotation
				JOINT Spine1
				{
					OFFSET 0.000000 11.900002 -1.516600
					CHANNELS 3 Xrotation Yrotation Zrotation
					JOINT Spine2
					{
						OFFSET 0.000000 13.600006 -2.842500
						CHANNELS 3 Xrotation Yrotation Zrotation
						JOINT Neck_virtual
						{
							OFFSET 0.000000 0.000000 0.000000
							CHANNELS 3 Xrotation Yrotation Zrotation
							JOINT Neck
							{
								OFFSET 0.000000 9.624100 -2.890100
								CHANNELS 3 Xrotation Yrotation Zrotation
								JOINT Head
								{
									OFFSET 0.000000 14.068802 -1.351900
									CHANNELS 3 Xrotation Yrotation Zrotation
									End Site
									{
										OFFSET 0 0 0
									}
								}
							}
						}
						JOINT LeftShoulder_virtual
						{
							OFFSET 0.000000 0.000000 0.000000
							CHANNELS 3 Xrotation Yrotation Zrotation
							JOINT LeftShoulder
							{
								OFFSET 15.263000 10.923401 -0.547700
								CHANNELS 3 Xrotation Yrotation Zrotation
								JOINT LeftArm
								{
									OFFSET 25.438599 -2.830597 -13.032500
									CHANNELS 3 Xrotation Yrotation Zrotation
									JOINT LeftForeArm
									{
										OFFSET 29.960503 0.000000 0.000000
										CHANNELS 3 Xrotation Yrotation Zrotation
										JOINT LeftHand
										{
											OFFSET 27.849251 0.000000 0.000000
											CHANNELS 3 Xrotation Yrotation Zrotation
											End Site
											{
												OFFSET 0 0 0
											}
										}
									}
								}
							}
						}
						JOINT RightShoulder_virtual
						{
							OFFSET 0.000000 0.000000 0.000000
							CHANNELS 3 Xrotation Yrotation Zrotation
							JOINT RightShoulder
							{
								OFFSET -15.263000 10.923401 -0.547700
								CHANNELS 3 Xrotation Yrotation Zrotation
								JOINT RightArm
								{
									OFFSET -25.438599 -2.830597 -13.032500
									CHANNELS 3 Xrotation Yrotation Zrotation
									JOINT RightForeArm
									{
										OFFSET -29.960503 0.000000 0.000000
										CHANNELS 3 Xrotation Yrotation Zrotation
										JOINT RightHand
										{
											OFFSET -27.849251 0.000000 0.000000
											CHANNELS 3 Xrotation Yrotation Zrotation
											End Site
											{
												OFFSET 0 0 0
											}
										}
									}
								}
							}
						}
					}
				}
			}
		}
	}
}
MOTION
Frames: 13
Frame Time: 0.03333333
-1.935887 91.023453 3.571987 0.000000 0.000000 0.000000 1.362926 -27.043743 0.872824 -29.803472 24.642324 16.530723 31.951608 8.275653 11.558377 -5.107053 1.808363 -15.915994 0.000000 0.000000 0.000000 1.362926 -27.043743 0.872824 -19.813235 -16.358117 -11.708634 35.211295 -0.577844 -7.629116 -17.003604 -2.982137 13.219343 0.000000 0.000000 0.000000 1.362926 -27.043743 0.872824 0.000000 0.000001 0.000000 3.670118 -2.011558 0.976424 1.363085 -0.820709 0.173836 0.000000 0.000000 0.000000 1.366614 -0.813814 0.178821 -0.724024 1.835180 0.961151 0.000000 0.000000 0.000000 1.366614 -0.813814 0.178821 -0.311620 3.473792 4.919199 -51.541796 -1.692559 -52.291894 -0.000119 -84.594482 -0.000148 0.000000 0.000000 0.000000 1.366614 -0.813814 0.178821 -1.129699 -10.661991 8.143387 -61.066959 65.570451 77.632572 -0.000299 81.745883 0.000278 0.000000 0.000000 0.000000 
-1.934488 91.024429 3.569349 0.000000 0.000000 0.000000 1.363294 -27.038207 0.867202 -29.830032 24.678221 16.553669 31.960593 8.229620 11.561654 -5.109326 1.807837 -15.902328 0.000000 0.000000 0.000000 1.363294 -27.038207 0.867202 -19.802501 -16.356998 -11.690727 35.195521 -0.600174 -7.639957 -16.994672 -2.982843 13.228937 0.000000 0.000000 0.000000 1.363294 -27.038207 0.867202 0.000000 -0.000001 0.000000 3.665270 -2.011574 0.976045 1.363088 -0.820714 0.173819 0.000000 0.000000 0.000000 1.366617 -0.813808 0.178805 -0.720997 1.835240 0.969417 0.000000 0.000000 0.000000 1.366617 -0.813808 0.178805 -0.308282 3.435131 4.918955 -51.567532 -1.700400 -52.299342 0.000394 -84.588430 0.000390 0.000000 0.000000 0.000000 1.366617 -0.813808 0.178805 -1.127376 -10.685149 8.203406 -61.032658 65.576865 77.592575 0.000149 81.763313 -0.000158 0.000000 0.000000 0.000000 
-1.934994 91.025299 3.567915 0.000000 0.000000 0.000000 1.363661 -27.031915 0.861460 -29.851137 24.703428 16.573667 31.967772 8.193781 11.563550 -5.110690 1.807432 -15.892722 0.000000 0.000000 0.000000 1.363661 -27.031915 0.861460 -19.788672 -16.351084 -11.675250 35.180962 -0.626491 -7.640767 -16.988702 -2.983191 13.234880 0.000000 0.000000 0.000000 1.363661 -27.031915 0.861460 0.000000 -0.000001 0.000000 3.658652 -2.011664 0.975763 1.361889 -0.820751 0.173847 0.000000 0.000000 0.000000 1.365417 -0.813856 0.178833 -0.717352 1.833137 0.974590 0.000000 0.000000 0.000000 1.365417 -0.813856 0.178833 -0.307942 3.431330 4.918805 -51.600822 -1.706252 -52.314820 -0.000413 -84.572413 -0.000355 0.000000 0.000000 0.000000 1.365417 -0.813856 0.178833 -1.125352 -10.703783 8.253318 -60.998063 65.595914 77.553601 -0.000003 81.773210 -0.000063 0.000000 0.000000 0.000000 
-1.935384 91.026138 3.566151 0.000000 0.000000 0.000000 1.364039 -27.026007 0.854552 -29.879093 24.739556 16.600886 31.978707 8.144726 11.565926 -5.114204 1.807100 -15.879927 0.000000 0.000000 0.000000 1.364039 -27.026007 0.854552 -19.773323 -16.337524 -11.659454 35.165820 -0.655650 -7.634890 -16.982157 -2.982372 13.238911 0.000000 0.000000 0.000000 1.364039 -27.026007 0.854552 0.000000 0.000001 0.000000 3.651949 -2.008425 0.975526 1.359631 -0.820065 0.173906 0.000000 0.000000 0.000000 1.363165 -0.813142 0.178891 -0.713602 1.831689 0.979040 0.000000 0.000000 0.000000 1.363165 -0.813142 0.178891 -0.306418 3.435009 4.888567 -51.635851 -1.710361 -52.332790 -0.000329 -84.553924 -0.000373 0.000000 0.000000 0.000000 1.363165 -0.813142 0.178891 -1.123387 -10.721039 8.300136 -60.963236 65.619854 77.514383 0.000098 81.780710 -0.000110 0.000000 0.000000 0.000000 
-1.935486 91.026871 3.564121 0.000000 0.000000 0.000000 1.364425 -27.020184 0.849649 -29.905362 24.777623 16.625763 31.987313 8.094482 11.567986 -5.116630 1.806493 -15.866185 0.000000 0.000000 0.000000 1.364425 -27.020184 0.849649 -19.760355 -16.318215 -11.648789 35.154823 -0.684508 -7.622520 -16.977248 -2.981468 13.240541 0.000000 0.000000 0.000000 1.364425 -27.020184 0.849649 0.000000 0.000001 0.000000 3.645040 -2.006894 0.975581 1.357168 -0.820012 0.174018 0.000000 0.000000 0.000000 1.360708 -0.813096 0.179007 -0.709852 1.830410 0.982656 0.000000 0.000000 0.000000 1.360708 -0.813096 0.179007 -0.305924 3.446135 4.864926 -51.651482 -1.736577 -52.386711 0.000020 -84.533884 -0.000024 0.000000 0.000000 0.000000 1.360708 -0.813096 0.179007 -1.121533 -10.736595 8.342945 -60.928463 65.648486 77.475287 -0.000264 81.786160 0.000260 0.000000 0.000000 0.000000 
-1.935581 91.027496 3.561651 0.000000 0.000000 0.000000 1.364821 -27.014371 0.846286 -29.931754 24.820144 16.650435 31.994372 8.039983 11.569990 -5.118191 1.805654 -15.851023 0.000000 0.000000 0.000000 1.364821 -27.014371 0.846286 -19.750086 -16.297135 -11.641514 35.147580 -0.709766 -7.607682 -16.974009 -2.980852 13.240089 0.000000 0.000000 0.000000 1.364821 -27.014371 0.846286 0.000000 0.000000 0.000000 3.637805 -2.006006 0.981111 1.354473 -0.820105 0.174196 0.000000 0.000000 0.000000 1.358022 -0.813170 0.179185 -0.706242 1.829368 0.985353 0.000000 0.000000 0.000000 1.358022 -0.813170 0.179185 -0.305901 3.463940 4.839977 -51.668072 -1.754031 -52.440174 -0.000215 -84.514199 -0.000228 0.000000 0.000000 0.000000 1.358022 -0.813170 0.179185 -1.119833 -10.750231 8.380926 -60.892783 65.681162 77.435774 -0.000329 81.790149 0.000302 0.000000 0.000000 0.000000 
-1.935928 91.028076 3.558546 0.000000 0.000000 0.000000 1.365214 -27.008361 0.843906 -29.959214 24.866620 16.676576 32.000751 7.981037 11.570670 -5.118964 1.804633 -15.833943 0.000000 0.000000 0.000000 1.365214 -27.008361 0.843906 -19.742324 -16.277924 -11.636176 35.142577 -0.729141 -7.593401 -16.971656 -2.980707 13.237938 0.000000 0.000000 0.000000 1.365214 -27.008361 0.843906 0.000000 0.000000 0.000000 3.630179 -2.005814 0.987019 1.351545 -0.820314 0.174423 0.000000 0.000000 0.000000 1.355109 -0.813378 0.179413 -0.702870 1.828405 0.986986 0.000000 0.000000 0.000000 1.355109 -0.813378 0.179413 -0.306347 3.486761 4.816126 -51.680114 -1.764624 -52.499252 -0.000150 -84.496796 -0.000135 0.000000 0.000000 0.000000 1.355109 -0.813378 0.179413 -1.118345 -10.761772 8.413389 -60.855852 65.716843 77.395735 0.000067 81.793592 -0.000060 0.000000 0.000000 0.000000 
-1.936664 91.028488 3.554605 0.000000 0.000000 0.000000 1.365619 -27.001678 0.841762 -29.988564 24.914753 16.703946 32.007342 7.919274 11.571450 -5.118825 1.803446 -15.816223 0.000000 0.000000 0.000000 1.365619 -27.001678 0.841762 -19.736731 -16.262511 -11.630774 35.139646 -0.743085 -7.581957 -16.970276 -2.981444 13.234714 0.000000 0.000000 0.000000 1.365619 -27.001678 0.841762 0.000000 0.000001 0.000000 3.622168 -2.006195 0.993052 1.348416 -0.820676 0.174693 0.000000 0.000000 0.000000 1.351993 -0.813698 0.179682 -0.699979 1.827641 0.987662 0.000000 0.000000 0.000000 1.351993 -0.813698 0.179682 -0.307219 3.511958 4.796308 -51.686138 -1.764366 -52.562076 0.000633 -84.484311 0.000631 0.000000 0.000000 0.000000 1.351993 -0.813698 0.179682 -1.117125 -10.771232 8.439926 -60.816920 65.754136 77.354495 -0.000038 81.797854 0.000054 0.000000 0.000000 0.000000 
-1.937993 91.028732 3.549746 0.000000 0.000000 0.000000 1.364196 -26.993963 0.838590 -30.017380 24.961193 16.731474 32.014258 7.857948 11.573005 -5.117700 1.802202 -15.799389 0.000000 0.000000 0.000000 1.364196 -26.993963 0.838590 -19.730545 -16.250144 -11.624808 35.138694 -0.754154 -7.571494 -16.970199 -2.983861 13.229925 0.000000 0.000000 0.000000 1.364196 -26.993963 0.838590 0.000000 0.000001 0.000000 3.613862 -2.007033 0.999009 1.345152 -0.821081 0.175005 0.000000 0.000000 0.000000 1.348742 -0.814102 0.179996 -0.697756 1.826997 0.987437 0.000000 0.000000 0.000000 1.348742 -0.814102 0.179996 -0.308428 3.536052 4.783768 -51.684970 -1.749053 -52.626273 0.000346 -84.479263 0.000305 0.000000 0.000000 0.000000 1.348742 -0.814102 0.179996 -1.116203 -10.778780 8.460475 -60.775235 65.791517 77.311410 0.000154 81.803912 -0.000162 0.000000 0.000000 0.000000 
-1.939798 91.028580 3.543856 0.000000 0.000000 0.000000 1.362776 -26.985041 0.834674 -30.046842 25.000681 16.758125 32.022522 7.802049 11.574911 -5.115520 1.800980 -15.784509 0.000000 0.000000 0.000000 1.362776 -26.985041 0.834674 -19.724915 -16.236729 -11.618831 35.139725 -0.766357 -7.557795 -16.971254 -2.985545 13.223159 0.000000 0.000000 0.000000 1.362776 -26.985041 0.834674 0.000000 0.000000 0.000000 3.605484 -2.008188 1.004567 1.341860 -0.821476 0.175355 0.000000 0.000000 0.000000 1.345470 -0.814492 0.180347 -0.696409 1.826309 0.986472 0.000000 0.000000 0.000000 1.345470 -0.814492 0.180347 -0.309857 3.554984 4.781776 -51.675709 -1.714835 -52.688841 -0.000115 -84.484379 -0.000173 0.000000 0.000000 0.000000 1.345470 -0.814492 0.180347 -1.115631 -10.784806 8.475396 -60.729582 65.827328 77.265176 0.000035 81.813570 -0.000054 0.000000 0.000000 0.000000 
-1.941957 91.027840 3.536892 0.000000 0.000000 0.000000 1.363233 -26.974707 0.831025 -30.076916 25.028518 16.781537 32.031511 7.756306 11.576798 -5.111518 1.799741 -15.772531 0.000000 0.000000 0.000000 1.363233 -26.974707 0.831025 -19.720996 -16.217961 -11.614013 35.143652 -0.783645 -7.536018 -16.973698 -2.987017 13.213383 0.000000 0.000000 0.000000 1.363233 -26.974707 0.831025 0.000000 -0.000002 0.000000 3.597364 -2.009290 1.009435 1.338693 -0.821757 0.175739 0.000000 0.000000 0.000000 1.342322 -0.814765 0.180735 -0.696177 1.825587 0.985084 0.000000 0.000000 0.000000 1.342322 -0.814765 0.180735 -0.315149 3.564105 4.793340 -51.658148 -1.658166 -52.746556 -0.000026 -84.501960 0.000007 0.000000 0.000000 0.000000 1.342322 -0.814765 0.180735 -1.115419 -10.789851 8.485618 -60.679141 65.859949 77.214571 0.000138 81.828310 -0.000156 0.000000 0.000000 0.000000 
-1.944166 91.026390 3.528816 0.000000 0.000000 0.000000 1.368080 -26.963237 0.829307 -30.107836 25.042171 16.799603 32.040052 7.724060 11.577889 -5.105021 1.798617 -15.763585 0.000000 0.000000 0.000000 1.368080 -26.963237 0.829307 -19.721982 -16.191310 -11.611708 35.151702 -0.807887 -7.503852 -16.977475 -2.988176 13.200195 0.000000 0.000000 0.000000 1.368080 -26.963237 0.829307 0.000000 0.000001 0.000000 3.589982 -2.010124 1.013305 1.335846 -0.821827 0.176165 0.000000 0.000000 0.000000 1.339494 -0.814789 0.181157 -0.697198 1.824588 0.983534 0.000000 0.000000 0.000000 1.339494 -0.814789 0.181157 -0.315639 3.560043 4.820860 -51.632747 -1.577398 -52.797079 -0.000472 -84.534096 -0.000481 0.000000 0.000000 0.000000 1.339494 -0.814789 0.181157 -1.115573 -10.794802 8.492603 -60.622847 65.888123 77.158065 0.000090 81.849654 -0.000042 0.000000 0.000000 0.000000 
-1.946185 91.024315 3.519613 0.000000 0.000000 0.000000 1.376074 -26.950267 0.829592 -30.138247 25.042887 16.811334 32.047326 7.704399 11.578654 -5.095678 1.797406 -15.757260 0.000000 0.000000 0.000000 1.376074 -26.950267 0.829592 -19.727372 -16.159579 -11.612479 35.163924 -0.837659 -7.463798 -16.982772 -2.989025 13.184469 0.000000 0.000000 0.000000 1.376074 -26.950267 0.829592 0.000000 0.000000 0.000000 3.583897 -2.010210 1.015859 1.333546 -0.821496 0.176630 0.000000 0.000000 0.000000 1.337215 -0.814474 0.181625 -0.699715 1.823267 0.982252 0.000000 0.000000 0.000000 1.337215 -0.814474 0.181625 -0.314395 3.539089 4.865854 -51.600679 -1.471851 -52.837684 0.000181 -84.581880 0.000163 0.000000 0.000000 0.000000 1.337215 -0.814474 0.181625 -1.116076 -10.800639 8.498419 -60.559804 65.910950 77.094005 -0.000033 81.879215 0.000042 0.000000 0.000000 0.000000 
